<?xml version="1.0" encoding="utf-8"?>
<!-- Generator: Adobe Illustrator 19.0.0, SVG Export Plug-In . SVG Version: 6.00 Build 0)  -->
<svg version="1.1" id="layer" xmlns="http://www.w3.org/2000/svg" xmlns:xlink="http://www.w3.org/1999/xlink" x="0px" y="0px"
	 viewBox="-153 -46 652 652" style="enable-background:new -153 -46 652 652;" xml:space="preserve">
<style type="text/css">
	.st0{fill:#E50012;}
	.st1{fill:#0055A1;}
</style>
<g>
	<path class="st0" d="M-0.3,280.1c-0.1,1-0.1,2.1-0.1,3.2v26.8h-24.5v-29.9L-0.3,280.1z M-24.9,275.4v-31.8h23.6v9h0.3
		c4.5-8.2,12.3-10.4,21.5-10.4h3v23.2c-1.7-1.8-4.8-2.2-8.4-2.2c-8.6,0-13,4.9-14.6,12.2L-24.9,275.4z"/>
	<path class="st0" d="M54.5,223.8c0,7.3-6,13.2-13.2,13.2c-7.3,0-13.2-6-13.2-13.2c0-7.3,6-13.2,13.2-13.2
		C48.5,210.6,54.5,216.6,54.5,223.8 M53.4,310.1H29.5v-30h23.9V310.1z M29.5,243.6h23.9v31.8H29.5V243.6z"/>
	<path class="st0" d="M164.6,223.8c0,7.3-6,13.2-13.2,13.2c-7.3,0-13.2-6-13.2-13.2c0-7.3,6-13.2,13.2-13.2
		C158.7,210.6,164.6,216.6,164.6,223.8 M163.5,280.1v30h-23.9v-30L163.5,280.1z M139.6,243.6h23.9v31.8h-23.9V243.6z"/>
	<path class="st0" d="M132.8,280.1v26.8c0,21.6-13.6,33.9-35.4,33.9c-15.8,0-35.5-5.9-37.8-25.4H86c-0.2,2.9,2,5.5,4.1,6.5
		c2.1,1,4.9,1.7,7.1,1.7c12.3,0,12.1-8.4,12.1-18.2v-2.2c-6.1,6.1-12.3,6.9-21.1,6.9c-18.3,0-30.4-15.2-31.8-30l25.3,0
		c1.7,6.6,7.6,11.2,13.2,11.2c8.1,0,13.4-4.7,14.8-11.2L132.8,280.1z M110,275.4c-0.4-7.7-5.9-14-15.1-14c-9.2,0-13.3,6.3-13.7,14
		H56.3c0.6-21.2,11-34.5,33.2-34.5c7.8,0,15.3,2.4,20,9h0.3v-6.2h23.1v31.8H110z"/>
	<path class="st0" d="M195.2,310.1h-25.5v-30h25.5V310.1z M239.8,310.1h-25.5v-30h25.5V310.1z M214.4,275.4
		c0.3-5.5,0.7-14.8-8.8-14.8c-5.4,0-10.3,3.5-10.4,14.8h-25.5v-31.8l23.9,0.1v8.5l-0.1-0.1c5.4-8,12-10.7,21.2-10.7
		c17.9,0,25,11.3,25,27.6v6.4L214.4,275.4z"/>
	<path class="st1" d="M272.9,280.1v6.6h29.7v23.4h-57.7v-30H272.9z M244.9,210.5h28.1v64.9h-28.1V210.5z"/>
	<path class="st1" d="M375.6,280.1v30h-24.1v-7.4h-0.3c-4.1,6.6-11.8,9.6-19.6,9.6c-19.4,0-31.6-12.9-32.9-32.2h24.9
		c1,6.9,5.5,11.7,13.9,11.7c8.3,0,13.6-4.9,14.9-11.7H375.6z M352.8,275.4c-0.6-7.5-6.1-13.5-15.1-13.5c-8.9,0-13.4,6.1-14.1,13.5
		l-24.9,0c0.5-20.3,12.2-34.3,32.3-34.3c7.6,0,16,3.2,20.5,9v-6.5h24.1v31.8H352.8z"/>
	<path class="st1" d="M456.9,280.1c-1.3,17.7-13.5,32.2-32.2,32.2c-7.8,0-15.8-3-20.1-9.6h-0.3v7.4h-23.6v-30h23.1
		c1.2,6.8,6.5,11.7,14.9,11.7c8.3,0,12.2-4.9,13.1-11.7L456.9,280.1z M432,275.4c-0.4-7.5-4.2-13.5-13.2-13.5c-9,0-14.4,6-15.1,13.5
		l-22.9,0v-65.2h23.6v39.9c5-5.8,13-8.7,20.6-8.7c19.2,0,31.4,15.5,32,34H432z"/>
	<path class="st0" d="M-30.3,280.1c-6.3,19.3-23.1,32.9-49.1,32.9c-33.8,0-51.9-23-51.9-51.3c0-23.1,12.1-42.7,34.9-49.1v67.5
		L-30.3,280.1z"/>
	<path class="st0" d="M-29,275.4c1-4.4,1.5-9,1.5-13.7c0-28.3-18.2-51.3-51.9-51.3c-4.4,0-8.4,0.4-12.3,1.1v63.9L-29,275.4z"/>
	<path class="st1" d="M459.7,228.7c4.9,0,8.9,4,8.9,8.9c0,4.9-4,8.9-8.9,8.9c-4.9,0-8.9-4-8.9-8.9
		C450.8,232.7,454.8,228.7,459.7,228.7 M459.8,245.2c4.1,0,7.2-3.3,7.2-7.6c0-4.3-3.1-7.6-7.2-7.6c-4.1,0-7.2,3.3-7.2,7.6
		C452.5,241.9,455.6,245.2,459.8,245.2 M456.3,232.4h4c2.4,0,3.6,1,3.6,2.9c0,1.7-1.1,2.9-2.7,2.9l3,4.6h-1.8l-2.9-4.6H458v4.6h-1.7
		V232.4z M458,236.9h2c1.3,0,2.1-0.3,2.1-1.6c0-1.2-1.1-1.5-2.1-1.5h-2V236.9z"/>
</g>
</svg>
